<svg width="168" height="24" viewBox="0 0 168 24" fill="none" xmlns="http://www.w3.org/2000/svg">
<path d="M13.0286 11.192C13.6473 11.5973 14.17 12.0773 14.5966 12.632C15.0446 13.1653 15.3966 13.8267 15.6526 14.616C15.93 15.4907 16.0686 16.376 16.0686 17.272C16.09 18.1467 15.93 18.968 15.5886 19.736C15.2686 20.4827 14.746 21.144 14.0206 21.72C13.3166 22.2747 12.3886 22.6693 11.2366 22.904C10.618 23.0533 9.89263 23.1707 9.06063 23.256C8.22863 23.3413 7.48196 23.384 6.82063 23.384C5.98863 23.4053 5.12463 23.4053 4.22863 23.384C3.35396 23.384 2.50063 23.2987 1.66863 23.128C1.30596 23.0213 1.03929 22.84 0.868625 22.584C0.719292 22.3067 0.612625 21.9973 0.548625 21.656C0.463292 21.464 0.420625 21.272 0.420625 21.08V2.904C0.420625 2.30667 0.537958 1.848 0.772625 1.528C1.02863 1.18667 1.35929 0.941332 1.76463 0.792C2.16996 0.621333 2.62863 0.525333 3.14062 0.504C3.65263 0.461332 4.18596 0.439999 4.74063 0.439999C5.16729 0.439999 5.59396 0.439999 6.02063 0.439999C6.46863 0.418666 6.91663 0.418666 7.36462 0.439999C8.06863 0.461332 8.79396 0.525331 9.54063 0.631998C10.3086 0.717332 11.034 0.887999 11.7166 1.144C12.0366 1.25067 12.378 1.4 12.7406 1.592C13.1033 1.76267 13.3913 1.976 13.6046 2.232C14.2873 2.85067 14.7886 3.576 15.1086 4.408C15.45 5.21867 15.5993 6.05067 15.5566 6.904C15.514 7.736 15.2793 8.536 14.8526 9.304C14.4473 10.072 13.8393 10.7013 13.0286 11.192ZM7.42863 19.672C8.08996 19.6293 8.76196 19.5547 9.44463 19.448C10.1273 19.3413 10.5966 19.1387 10.8526 18.84C11.13 18.4987 11.322 18.104 11.4286 17.656C11.5566 17.1867 11.5886 16.7173 11.5246 16.248C11.482 15.7573 11.3433 15.2987 11.1086 14.872C10.8953 14.424 10.6073 14.072 10.2446 13.816C9.75396 13.432 9.18863 13.1867 8.54862 13.08C7.90862 12.952 7.27929 12.888 6.66063 12.888C6.36196 12.888 6.08463 12.8987 5.82863 12.92C5.59396 12.92 5.38063 12.952 5.18863 13.016C5.01796 13.0587 4.88996 13.1547 4.80463 13.304C4.71929 13.4533 4.67663 13.6773 4.67663 13.976C4.71929 14.5307 4.71929 15.0853 4.67663 15.64C4.63396 16.1947 4.61263 16.728 4.61263 17.24C4.61263 17.5387 4.60196 17.8693 4.58063 18.232C4.58063 18.5733 4.69796 18.8613 4.93263 19.096C5.16729 19.3307 5.50863 19.4907 5.95663 19.576C6.40463 19.6613 6.89529 19.6933 7.42863 19.672ZM8.06863 4.312C7.40729 4.29067 6.85263 4.28 6.40463 4.28C5.97796 4.25867 5.63663 4.29067 5.38063 4.376C5.14596 4.44 4.97529 4.6 4.86863 4.856C4.78329 5.09067 4.75129 5.45333 4.77263 5.944C4.77263 6.34933 4.76196 6.75467 4.74063 7.16C4.74063 7.544 4.74063 7.928 4.74063 8.312C4.74063 8.73867 4.87929 9.05867 5.15663 9.272C5.43396 9.464 5.77529 9.58133 6.18063 9.624C6.60729 9.66667 7.04463 9.66667 7.49263 9.624C7.96196 9.58133 8.36729 9.528 8.70863 9.464C9.47663 9.336 10.0633 9.08 10.4686 8.696C10.8953 8.29067 11.1406 7.704 11.2046 6.936C11.29 5.976 11.034 5.31467 10.4366 4.952C9.86063 4.568 9.07129 4.35467 8.06863 4.312Z" fill="#FFCEED"/>
<path d="M21.9771 9.528C22.6171 9.208 23.2891 8.984 23.9931 8.856C24.6971 8.70667 25.3905 8.67467 26.0731 8.76C26.7771 8.824 27.4491 9.00533 28.0891 9.304C28.7291 9.58133 29.3265 9.98667 29.8811 10.52C30.4358 11.0747 30.8625 11.6827 31.1611 12.344C31.4598 13.0053 31.6731 13.7413 31.8011 14.552C31.8865 15.1067 32.0251 15.6187 32.2171 16.088C32.4091 16.5573 32.6118 17.0267 32.8251 17.496C33.0598 17.9653 33.2731 18.4347 33.4651 18.904C33.6785 19.3733 33.8491 19.864 33.9771 20.376C34.0838 20.8667 34.0411 21.3467 33.8491 21.816C33.6785 22.264 33.3158 22.5413 32.7611 22.648C32.4411 22.712 32.1318 22.6907 31.8331 22.584C31.5558 22.456 31.2998 22.2853 31.0651 22.072C30.8305 21.8373 30.6171 21.592 30.4251 21.336C30.2545 21.0587 30.0945 20.8027 29.9451 20.568C29.4545 21.208 28.9211 21.7093 28.3451 22.072C27.7691 22.4133 27.0758 22.6373 26.2651 22.744C25.5825 22.8293 24.9318 22.8507 24.3131 22.808C23.6945 22.7653 23.0331 22.648 22.3291 22.456C21.4118 22.2213 20.6545 21.816 20.0571 21.24C19.4811 20.6427 19.0331 19.96 18.7131 19.192C18.4145 18.4027 18.2545 17.56 18.2331 16.664C18.2118 15.768 18.3185 14.8827 18.5531 14.008C18.8518 12.856 19.2998 11.9173 19.8971 11.192C20.4945 10.4667 21.1878 9.912 21.9771 9.528ZM22.7771 13.272C22.4785 13.5707 22.2438 13.9227 22.0731 14.328C21.9025 14.7333 21.7958 15.16 21.7531 15.608C21.7318 16.056 21.7745 16.504 21.8811 16.952C21.9878 17.4 22.1585 17.7947 22.3931 18.136C22.6065 18.4347 22.9691 18.6907 23.4811 18.904C23.9931 19.096 24.5265 19.2133 25.0811 19.256C25.7211 19.2987 26.2758 19.128 26.7451 18.744C27.2358 18.36 27.5985 17.88 27.8331 17.304C28.0891 16.7067 28.2065 16.0773 28.1851 15.416C28.1638 14.7333 27.9825 14.1147 27.6411 13.56C27.3851 13.1547 27.0438 12.856 26.6171 12.664C26.2118 12.472 25.7745 12.376 25.3051 12.376C24.8358 12.3547 24.3665 12.4293 23.8971 12.6C23.4491 12.7493 23.0758 12.9733 22.7771 13.272ZM36.6714 11.672C36.6714 11.416 36.6714 11.128 36.6714 10.808C36.6714 10.4667 36.682 10.1253 36.7034 9.784C36.7247 9.42133 36.7567 9.08 36.7994 8.76C36.8634 8.41867 36.9487 8.12 37.0554 7.864C37.226 7.48 37.4927 7.224 37.8554 7.096C38.218 6.94667 38.6127 6.88267 39.0394 6.904C39.4874 6.904 39.8394 6.97867 40.0954 7.128C40.3514 7.27733 40.5434 7.48 40.6714 7.736C40.7994 7.97067 40.874 8.248 40.8954 8.568C40.938 8.86667 40.9594 9.18667 40.9594 9.528C41.1514 9.18667 41.4074 8.90933 41.7274 8.696C42.0687 8.48267 42.41 8.312 42.7514 8.184C43.0927 8.056 43.402 7.97067 43.6794 7.928C43.9567 7.864 44.1167 7.832 44.1594 7.832C44.6927 7.78933 45.1727 7.77867 45.5994 7.8C46.0474 7.82133 46.538 7.91733 47.0714 8.088C47.4127 8.216 47.7647 8.39733 48.1274 8.632C48.49 8.84533 48.81 9.10133 49.0874 9.4C49.3647 9.69867 49.546 10.0293 49.6314 10.392C49.738 10.7333 49.6954 11.096 49.5034 11.48C49.2047 12.0133 48.874 12.28 48.5114 12.28C48.1487 12.2587 47.754 12.1947 47.3274 12.088C47.0927 12.0453 46.8154 11.9493 46.4954 11.8C46.1754 11.6507 45.898 11.5547 45.6634 11.512C44.938 11.4053 44.298 11.4587 43.7434 11.672C43.1887 11.8853 42.7087 12.1413 42.3034 12.44C41.834 12.8027 41.4287 13.2187 41.0874 13.688V18.296C41.0874 18.872 41.0767 19.4693 41.0554 20.088C41.0554 20.7067 40.97 21.272 40.7994 21.784C40.65 22.2747 40.3834 22.68 39.9994 23C39.6367 23.2987 39.1034 23.4267 38.3994 23.384C38.0154 23.3627 37.674 23.1813 37.3754 22.84C37.0767 22.4773 36.8954 22.1253 36.8314 21.784C36.7887 21.464 36.7567 21.08 36.7354 20.632C36.714 20.184 36.6927 19.7147 36.6714 19.224C36.6714 18.7333 36.6714 18.2427 36.6714 17.752C36.6714 17.24 36.6714 16.7707 36.6714 16.344V11.672ZM52.2964 11.672C52.2964 11.416 52.2964 11.128 52.2964 10.808C52.2964 10.4667 52.307 10.1253 52.3284 9.784C52.3497 9.42133 52.3817 9.08 52.4244 8.76C52.4884 8.41867 52.5737 8.12 52.6804 7.864C52.851 7.48 53.1177 7.224 53.4804 7.096C53.843 6.94667 54.2377 6.88267 54.6644 6.904C55.1124 6.904 55.4644 6.97867 55.7204 7.128C55.9764 7.27733 56.1684 7.48 56.2964 7.736C56.4244 7.97067 56.499 8.248 56.5204 8.568C56.563 8.86667 56.5844 9.18667 56.5844 9.528C56.7764 9.18667 57.0324 8.90933 57.3524 8.696C57.6937 8.48267 58.035 8.312 58.3764 8.184C58.7177 8.056 59.027 7.97067 59.3044 7.928C59.5817 7.864 59.7417 7.832 59.7844 7.832C60.3177 7.78933 60.7977 7.77867 61.2244 7.8C61.6724 7.82133 62.163 7.91733 62.6964 8.088C63.0377 8.216 63.3897 8.39733 63.7524 8.632C64.115 8.84533 64.435 9.10133 64.7124 9.4C64.9897 9.69867 65.171 10.0293 65.2564 10.392C65.363 10.7333 65.3204 11.096 65.1284 11.48C64.8297 12.0133 64.499 12.28 64.1364 12.28C63.7737 12.2587 63.379 12.1947 62.9524 12.088C62.7177 12.0453 62.4404 11.9493 62.1204 11.8C61.8004 11.6507 61.523 11.5547 61.2884 11.512C60.563 11.4053 59.923 11.4587 59.3684 11.672C58.8137 11.8853 58.3337 12.1413 57.9284 12.44C57.459 12.8027 57.0537 13.2187 56.7124 13.688V18.296C56.7124 18.872 56.7017 19.4693 56.6804 20.088C56.6804 20.7067 56.595 21.272 56.4244 21.784C56.275 22.2747 56.0084 22.68 55.6244 23C55.2617 23.2987 54.7284 23.4267 54.0244 23.384C53.6404 23.3627 53.299 23.1813 53.0004 22.84C52.7017 22.4773 52.5204 22.1253 52.4564 21.784C52.4137 21.464 52.3817 21.08 52.3604 20.632C52.339 20.184 52.3177 19.7147 52.2964 19.224C52.2964 18.7333 52.2964 18.2427 52.2964 17.752C52.2964 17.24 52.2964 16.7707 52.2964 16.344V11.672ZM71.9214 10.872C71.9214 11.4693 71.9214 12.1413 71.9214 12.888C71.9427 13.6347 71.9534 14.4133 71.9534 15.224C71.9534 16.0133 71.9534 16.8027 71.9534 17.592C71.9534 18.36 71.9427 19.0747 71.9214 19.736C71.9 20.056 71.868 20.408 71.8254 20.792C71.7827 21.1547 71.6974 21.496 71.5694 21.816C71.4414 22.136 71.2387 22.4027 70.9614 22.616C70.7054 22.808 70.3534 22.8933 69.9054 22.872C69.244 22.8293 68.764 22.5413 68.4654 22.008C68.188 21.4747 68.028 20.728 67.9854 19.768C67.9854 19.2773 67.9747 18.712 67.9534 18.072C67.9534 17.432 67.9427 16.7813 67.9214 16.12C67.9214 15.4587 67.9214 14.8187 67.9214 14.2C67.9214 13.56 67.9214 12.984 67.9214 12.472C67.9214 12.1733 67.9107 11.8107 67.8894 11.384C67.8894 10.9573 67.9 10.52 67.9214 10.072C67.9427 9.624 67.996 9.19733 68.0814 8.792C68.1667 8.36533 68.3054 8.01333 68.4974 7.736C68.6467 7.56533 68.86 7.43733 69.1374 7.352C69.4147 7.24533 69.7027 7.192 70.0014 7.192C70.3214 7.192 70.62 7.24533 70.8974 7.352C71.196 7.45867 71.4094 7.608 71.5374 7.8C71.6227 7.928 71.6867 8.10933 71.7294 8.344C71.772 8.57867 71.804 8.84533 71.8254 9.144C71.868 9.42133 71.8894 9.72 71.8894 10.04C71.9107 10.3387 71.9214 10.616 71.9214 10.872ZM70.7054 4.408C70.044 4.57867 69.4894 4.51467 69.0414 4.216C68.6147 3.896 68.348 3.42666 68.2414 2.808C68.156 2.36 68.188 1.96533 68.3374 1.624C68.4867 1.28267 68.7107 1.02667 69.0094 0.855999C69.308 0.663999 69.6494 0.578665 70.0334 0.599998C70.4174 0.621332 70.8014 0.770665 71.1854 1.048C71.548 1.304 71.804 1.60267 71.9534 1.944C72.124 2.28533 72.1774 2.616 72.1134 2.936C72.0707 3.256 71.932 3.55467 71.6974 3.832C71.4627 4.088 71.132 4.28 70.7054 4.408ZM85.8051 18.616C86.0611 18.552 86.3171 18.5093 86.5731 18.488C86.8505 18.4667 87.0958 18.4987 87.3091 18.584C87.5438 18.6693 87.7358 18.8187 87.8851 19.032C88.0345 19.224 88.1091 19.5013 88.1091 19.864C88.1091 20.12 88.0451 20.3653 87.9171 20.6C87.7891 20.8347 87.6291 21.048 87.4371 21.24C87.2451 21.432 87.0318 21.6027 86.7971 21.752C86.5625 21.88 86.3385 21.9867 86.1251 22.072C85.5065 22.3493 84.7918 22.5627 83.9811 22.712C83.1918 22.8613 82.3705 22.9147 81.5171 22.872C80.3651 22.8293 79.2558 22.6053 78.1891 22.2C77.1438 21.7733 76.3225 21.08 75.7251 20.12C75.1705 19.1813 74.8398 18.136 74.7331 16.984C74.6265 15.832 74.6798 14.744 74.8931 13.72C75.1278 12.4827 75.5225 11.48 76.0771 10.712C76.6531 9.92267 77.3358 9.29333 78.1251 8.824C79.0851 8.26933 80.1625 7.98133 81.3571 7.96C82.5518 7.93867 83.6931 8.17333 84.7811 8.664C85.5065 8.984 86.1571 9.42133 86.7331 9.976C87.3091 10.5093 87.7465 11.16 88.0451 11.928C88.1305 12.12 88.1945 12.3547 88.2371 12.632C88.3011 12.9093 88.3438 13.208 88.3651 13.528C88.3865 13.8267 88.3865 14.1253 88.3651 14.424C88.3438 14.7227 88.2905 14.9893 88.2051 15.224C88.0771 15.608 87.9171 15.9067 87.7251 16.12C87.5331 16.3333 87.2878 16.4933 86.9891 16.6C86.6905 16.7067 86.3278 16.7813 85.9011 16.824C85.4958 16.8453 85.0051 16.8667 84.4291 16.888C83.9171 16.9093 83.4371 16.92 82.9891 16.92C82.5411 16.92 82.0825 16.92 81.6131 16.92C81.1438 16.8987 80.6531 16.888 80.1411 16.888C79.6505 16.8667 79.0958 16.8453 78.4771 16.824C78.4131 17.2507 78.4665 17.624 78.6371 17.944C78.8291 18.2427 79.0851 18.4987 79.4051 18.712C79.7251 18.904 80.0878 19.0533 80.4931 19.16C80.8985 19.2667 81.2931 19.3307 81.6771 19.352C82.4025 19.3947 83.0958 19.3413 83.7571 19.192C84.4185 19.0213 85.1011 18.8293 85.8051 18.616ZM84.4291 12.408C84.0238 11.9387 83.5971 11.5973 83.1491 11.384C82.8078 11.2347 82.4451 11.1707 82.0611 11.192C81.6985 11.192 81.3465 11.2453 81.0051 11.352C80.3865 11.5013 79.8638 11.8213 79.4371 12.312C79.3945 12.3547 79.3198 12.4613 79.2131 12.632C79.1065 12.7813 78.9998 12.9413 78.8931 13.112C78.8078 13.2827 78.7438 13.4427 78.7011 13.592C78.6585 13.7413 78.6798 13.816 78.7651 13.816H85.0371C85.0158 13.5173 84.9625 13.272 84.8771 13.08C84.7918 12.8667 84.6425 12.6427 84.4291 12.408ZM90.9839 11.672C90.9839 11.416 90.9839 11.128 90.9839 10.808C90.9839 10.4667 90.9945 10.1253 91.0159 9.784C91.0372 9.42133 91.0692 9.08 91.1119 8.76C91.1759 8.41867 91.2612 8.12 91.3679 7.864C91.5385 7.48 91.8052 7.224 92.1679 7.096C92.5305 6.94667 92.9252 6.88267 93.3519 6.904C93.7999 6.904 94.1519 6.97867 94.4079 7.128C94.6639 7.27733 94.8559 7.48 94.9839 7.736C95.1119 7.97067 95.1865 8.248 95.2079 8.568C95.2505 8.86667 95.2719 9.18667 95.2719 9.528C95.4639 9.18667 95.7199 8.90933 96.0399 8.696C96.3812 8.48267 96.7225 8.312 97.0639 8.184C97.4052 8.056 97.7145 7.97067 97.9919 7.928C98.2692 7.864 98.4292 7.832 98.4719 7.832C99.0052 7.78933 99.4852 7.77867 99.9119 7.8C100.36 7.82133 100.851 7.91733 101.384 8.088C101.725 8.216 102.077 8.39733 102.44 8.632C102.803 8.84533 103.123 9.10133 103.4 9.4C103.677 9.69867 103.859 10.0293 103.944 10.392C104.051 10.7333 104.008 11.096 103.816 11.48C103.517 12.0133 103.187 12.28 102.824 12.28C102.461 12.2587 102.067 12.1947 101.64 12.088C101.405 12.0453 101.128 11.9493 100.808 11.8C100.488 11.6507 100.211 11.5547 99.9759 11.512C99.2505 11.4053 98.6105 11.4587 98.0559 11.672C97.5012 11.8853 97.0212 12.1413 96.6159 12.44C96.1465 12.8027 95.7412 13.2187 95.3999 13.688V18.296C95.3999 18.872 95.3892 19.4693 95.3679 20.088C95.3679 20.7067 95.2825 21.272 95.1119 21.784C94.9625 22.2747 94.6959 22.68 94.3119 23C93.9492 23.2987 93.4159 23.4267 92.7119 23.384C92.3279 23.3627 91.9865 23.1813 91.6879 22.84C91.3892 22.4773 91.2079 22.1253 91.1439 21.784C91.1012 21.464 91.0692 21.08 91.0479 20.632C91.0265 20.184 91.0052 19.7147 90.9839 19.224C90.9839 18.7333 90.9839 18.2427 90.9839 17.752C90.9839 17.24 90.9839 16.7707 90.9839 16.344V11.672ZM124.015 11.672C124.015 11.416 124.015 11.128 124.015 10.808C124.015 10.4667 124.026 10.1253 124.047 9.784C124.068 9.42133 124.1 9.08 124.143 8.76C124.207 8.41867 124.292 8.12 124.399 7.864C124.57 7.48 124.836 7.224 125.199 7.096C125.562 6.94667 125.956 6.88267 126.383 6.904C126.831 6.904 127.183 6.97867 127.439 7.128C127.695 7.27733 127.887 7.48 128.015 7.736C128.143 7.97067 128.218 8.248 128.239 8.568C128.282 8.86667 128.303 9.18667 128.303 9.528C128.495 9.18667 128.751 8.90933 129.071 8.696C129.412 8.48267 129.754 8.312 130.095 8.184C130.436 8.056 130.746 7.97067 131.023 7.928C131.3 7.864 131.46 7.832 131.503 7.832C132.036 7.78933 132.516 7.77867 132.943 7.8C133.391 7.82133 133.882 7.91733 134.415 8.088C134.756 8.216 135.108 8.39733 135.471 8.632C135.834 8.84533 136.154 9.10133 136.431 9.4C136.708 9.69867 136.89 10.0293 136.975 10.392C137.082 10.7333 137.039 11.096 136.847 11.48C136.548 12.0133 136.218 12.28 135.855 12.28C135.492 12.2587 135.098 12.1947 134.671 12.088C134.436 12.0453 134.159 11.9493 133.839 11.8C133.519 11.6507 133.242 11.5547 133.007 11.512C132.282 11.4053 131.642 11.4587 131.087 11.672C130.532 11.8853 130.052 12.1413 129.647 12.44C129.178 12.8027 128.772 13.2187 128.431 13.688V18.296C128.431 18.872 128.42 19.4693 128.399 20.088C128.399 20.7067 128.314 21.272 128.143 21.784C127.994 22.2747 127.727 22.68 127.343 23C126.98 23.2987 126.447 23.4267 125.743 23.384C125.359 23.3627 125.018 23.1813 124.719 22.84C124.42 22.4773 124.239 22.1253 124.175 21.784C124.132 21.464 124.1 21.08 124.079 20.632C124.058 20.184 124.036 19.7147 124.015 19.224C124.015 18.7333 124.015 18.2427 124.015 17.752C124.015 17.24 124.015 16.7707 124.015 16.344V11.672ZM148.774 18.616C149.03 18.552 149.286 18.5093 149.542 18.488C149.819 18.4667 150.065 18.4987 150.278 18.584C150.513 18.6693 150.705 18.8187 150.854 19.032C151.003 19.224 151.078 19.5013 151.078 19.864C151.078 20.12 151.014 20.3653 150.886 20.6C150.758 20.8347 150.598 21.048 150.406 21.24C150.214 21.432 150.001 21.6027 149.766 21.752C149.531 21.88 149.307 21.9867 149.094 22.072C148.475 22.3493 147.761 22.5627 146.95 22.712C146.161 22.8613 145.339 22.9147 144.486 22.872C143.334 22.8293 142.225 22.6053 141.158 22.2C140.113 21.7733 139.291 21.08 138.694 20.12C138.139 19.1813 137.809 18.136 137.702 16.984C137.595 15.832 137.649 14.744 137.862 13.72C138.097 12.4827 138.491 11.48 139.046 10.712C139.622 9.92267 140.305 9.29333 141.094 8.824C142.054 8.26933 143.131 7.98133 144.326 7.96C145.521 7.93867 146.662 8.17333 147.75 8.664C148.475 8.984 149.126 9.42133 149.702 9.976C150.278 10.5093 150.715 11.16 151.014 11.928C151.099 12.12 151.163 12.3547 151.206 12.632C151.27 12.9093 151.313 13.208 151.334 13.528C151.355 13.8267 151.355 14.1253 151.334 14.424C151.313 14.7227 151.259 14.9893 151.174 15.224C151.046 15.608 150.886 15.9067 150.694 16.12C150.502 16.3333 150.257 16.4933 149.958 16.6C149.659 16.7067 149.297 16.7813 148.87 16.824C148.465 16.8453 147.974 16.8667 147.398 16.888C146.886 16.9093 146.406 16.92 145.958 16.92C145.51 16.92 145.051 16.92 144.582 16.92C144.113 16.8987 143.622 16.888 143.11 16.888C142.619 16.8667 142.065 16.8453 141.446 16.824C141.382 17.2507 141.435 17.624 141.606 17.944C141.798 18.2427 142.054 18.4987 142.374 18.712C142.694 18.904 143.057 19.0533 143.462 19.16C143.867 19.2667 144.262 19.3307 144.646 19.352C145.371 19.3947 146.065 19.3413 146.726 19.192C147.387 19.0213 148.07 18.8293 148.774 18.616ZM147.398 12.408C146.993 11.9387 146.566 11.5973 146.118 11.384C145.777 11.2347 145.414 11.1707 145.03 11.192C144.667 11.192 144.315 11.2453 143.974 11.352C143.355 11.5013 142.833 11.8213 142.406 12.312C142.363 12.3547 142.289 12.4613 142.182 12.632C142.075 12.7813 141.969 12.9413 141.862 13.112C141.777 13.2827 141.713 13.4427 141.67 13.592C141.627 13.7413 141.649 13.816 141.734 13.816H148.006C147.985 13.5173 147.931 13.272 147.846 13.08C147.761 12.8667 147.611 12.6427 147.398 12.408ZM164.993 18.616C165.249 18.552 165.505 18.5093 165.761 18.488C166.038 18.4667 166.283 18.4987 166.497 18.584C166.731 18.6693 166.923 18.8187 167.073 19.032C167.222 19.224 167.297 19.5013 167.297 19.864C167.297 20.12 167.233 20.3653 167.105 20.6C166.977 20.8347 166.817 21.048 166.625 21.24C166.433 21.432 166.219 21.6027 165.985 21.752C165.75 21.88 165.526 21.9867 165.313 22.072C164.694 22.3493 163.979 22.5627 163.169 22.712C162.379 22.8613 161.558 22.9147 160.705 22.872C159.553 22.8293 158.443 22.6053 157.377 22.2C156.331 21.7733 155.51 21.08 154.913 20.12C154.358 19.1813 154.027 18.136 153.921 16.984C153.814 15.832 153.867 14.744 154.081 13.72C154.315 12.4827 154.71 11.48 155.265 10.712C155.841 9.92267 156.523 9.29333 157.313 8.824C158.273 8.26933 159.35 7.98133 160.545 7.96C161.739 7.93867 162.881 8.17333 163.969 8.664C164.694 8.984 165.345 9.42133 165.921 9.976C166.497 10.5093 166.934 11.16 167.233 11.928C167.318 12.12 167.382 12.3547 167.425 12.632C167.489 12.9093 167.531 13.208 167.553 13.528C167.574 13.8267 167.574 14.1253 167.553 14.424C167.531 14.7227 167.478 14.9893 167.393 15.224C167.265 15.608 167.105 15.9067 166.913 16.12C166.721 16.3333 166.475 16.4933 166.177 16.6C165.878 16.7067 165.515 16.7813 165.089 16.824C164.683 16.8453 164.193 16.8667 163.617 16.888C163.105 16.9093 162.625 16.92 162.177 16.92C161.729 16.92 161.27 16.92 160.801 16.92C160.331 16.8987 159.841 16.888 159.329 16.888C158.838 16.8667 158.283 16.8453 157.665 16.824C157.601 17.2507 157.654 17.624 157.825 17.944C158.017 18.2427 158.273 18.4987 158.593 18.712C158.913 18.904 159.275 19.0533 159.681 19.16C160.086 19.2667 160.481 19.3307 160.865 19.352C161.59 19.3947 162.283 19.3413 162.945 19.192C163.606 19.0213 164.289 18.8293 164.993 18.616ZM163.617 12.408C163.211 11.9387 162.785 11.5973 162.337 11.384C161.995 11.2347 161.633 11.1707 161.249 11.192C160.886 11.192 160.534 11.2453 160.193 11.352C159.574 11.5013 159.051 11.8213 158.625 12.312C158.582 12.3547 158.507 12.4613 158.401 12.632C158.294 12.7813 158.187 12.9413 158.081 13.112C157.995 13.2827 157.931 13.4427 157.889 13.592C157.846 13.7413 157.867 13.816 157.953 13.816H164.225C164.203 13.5173 164.15 13.272 164.065 13.08C163.979 12.8667 163.83 12.6427 163.617 12.408Z" fill="#5061FF"/>
<path d="M121.521 1.304C121.713 1.56 121.83 1.85867 121.873 2.2C121.873 2.328 121.862 2.456 121.841 2.584C121.841 2.69067 121.83 2.79733 121.809 2.904C121.788 3.13867 121.649 3.36267 121.393 3.576C121.244 3.68266 121.052 3.78933 120.817 3.896C120.689 3.93867 120.55 3.97067 120.401 3.992C120.273 3.992 120.124 4.00267 119.953 4.024C119.825 4.06667 119.686 4.088 119.537 4.088C119.388 4.088 119.238 4.088 119.089 4.088H117.649L110.961 4.12V4.216L110.929 9.432C111.1 9.432 111.281 9.432 111.473 9.432C111.686 9.432 111.942 9.42133 112.241 9.4C113.094 9.4 113.852 9.4 114.513 9.4C115.196 9.4 115.942 9.41067 116.753 9.432H116.945C117.18 9.432 117.414 9.44267 117.649 9.464C117.905 9.464 118.161 9.464 118.417 9.464C118.652 9.48533 118.886 9.51733 119.121 9.56C119.356 9.58133 119.59 9.63467 119.825 9.72C120.209 9.848 120.486 10.0507 120.657 10.328C120.892 10.6053 121.009 10.8933 121.009 11.192C121.009 11.32 121.009 11.448 121.009 11.576C121.009 11.6827 120.988 11.8 120.945 11.928C120.924 12.0987 120.785 12.312 120.529 12.568C120.358 12.7173 120.156 12.8133 119.921 12.856C119.814 12.8987 119.686 12.9413 119.537 12.984C119.409 13.0053 119.27 13.0267 119.121 13.048C118.972 13.0693 118.822 13.0907 118.673 13.112C118.545 13.112 118.396 13.112 118.225 13.112H116.753L110.865 13.144L110.769 20.568V20.824C110.769 20.9307 110.758 21.0373 110.737 21.144C110.737 21.2293 110.726 21.3253 110.705 21.432C110.662 21.5387 110.62 21.656 110.577 21.784C110.556 21.8907 110.524 21.9973 110.481 22.104C110.332 22.4027 110.193 22.6053 110.065 22.712C109.83 22.8827 109.542 23 109.201 23.064C108.625 23.192 108.081 23.128 107.569 22.872C107.462 22.808 107.356 22.7333 107.249 22.648C107.164 22.5413 107.089 22.4133 107.025 22.264C106.982 22.1787 106.961 22.1147 106.961 22.072L106.865 21.88C106.801 21.7733 106.758 21.6667 106.737 21.56C106.716 21.432 106.694 21.3147 106.673 21.208C106.673 21.1013 106.662 20.9947 106.641 20.888C106.641 20.7813 106.63 20.6747 106.609 20.568C106.588 20.3973 106.588 20.2267 106.609 20.056V19.544L106.641 17.048L106.673 12.44C106.694 11.7573 106.705 11.064 106.705 10.36C106.705 9.656 106.705 8.93067 106.705 8.184C106.684 7.416 106.673 6.73333 106.673 6.136C106.694 5.53867 106.726 4.888 106.769 4.184V4.024C106.79 3.78933 106.801 3.576 106.801 3.384C106.801 3.17067 106.822 2.95733 106.865 2.744C106.908 2.27467 107.014 1.85867 107.185 1.496C107.334 1.13333 107.548 0.877333 107.825 0.727999C108.145 0.535999 108.486 0.439999 108.849 0.439999C109.02 0.439999 109.158 0.450665 109.265 0.471998V0.439999C109.649 0.439999 109.958 0.439999 110.193 0.439999C110.428 0.439999 110.652 0.439999 110.865 0.439999C111.078 0.439999 111.313 0.439999 111.569 0.439999C111.825 0.418666 112.166 0.407999 112.593 0.407999C114.3 0.386666 115.985 0.386666 117.649 0.407999H117.809C118.044 0.429332 118.278 0.439999 118.513 0.439999C118.769 0.439999 119.025 0.450665 119.281 0.471998C119.516 0.471998 119.75 0.503998 119.985 0.567999C120.22 0.610665 120.454 0.674665 120.689 0.759998C121.052 0.866665 121.329 1.048 121.521 1.304Z" fill="#FFD950"/>
</svg>
